<svg xmlns="http://www.w3.org/2000/svg" xmlns:xlink="http://www.w3.org/1999/xlink" viewBox="0 0 582.63 225.97"><defs><style>.cls-1{fill:#00916e;}.cls-2{fill:url(#linear-gradient);}.cls-3,.cls-4{fill:#333;}.cls-3{opacity:0.6;}</style><linearGradient id="linear-gradient" x1="62.78" y1="208.69" x2="62.78" y2="50.78" gradientUnits="userSpaceOnUse"><stop offset="0" stop-color="#a9fbd7"/><stop offset="0.16" stop-color="#a9fbd7" stop-opacity="0.93"/><stop offset="0.51" stop-color="#a9fbd7" stop-opacity="0.81"/><stop offset="0.8" stop-color="#a9fbd7" stop-opacity="0.73"/><stop offset="1" stop-color="#a9fbd7" stop-opacity="0.7"/></linearGradient></defs><title>Asset 1</title><g id="Layer_2" data-name="Layer 2"><g id="Layer_1-2" data-name="Layer 1"><path class="cls-1" d="M0,17.67V140.25A17.64,17.64,0,0,0,27.25,155L115.3,97.86a22.55,22.55,0,0,0,0-37.81l-88-57.18A17.64,17.64,0,0,0,0,17.67Z"/><path class="cls-2" d="M0,68.45V191a17.64,17.64,0,0,0,27.25,14.79l88.05-57.18a22.55,22.55,0,0,0,0-37.81l-38-24.69-50-32.48A17.64,17.64,0,0,0,0,68.45Z"/><circle class="cls-1" cx="106.17" cy="189.3" r="19.39"/><path class="cls-3" d="M167.13,209a21.67,21.67,0,0,1-10.62-2.55,18.79,18.79,0,0,1-7.28-7.06A20.11,20.11,0,0,1,146.61,189a21.15,21.15,0,0,1,2.48-10.41,18.14,18.14,0,0,1,6.88-7A19.57,19.57,0,0,1,166.05,169a18,18,0,0,1,9.64,2.49,16.14,16.14,0,0,1,6.16,6.84,22.57,22.57,0,0,1,2.12,10,3,3,0,0,1-.93,2.27,3.31,3.31,0,0,1-2.38.9h-29V185.8h28.8l-3,2a15.16,15.16,0,0,0-1.44-6.44,10.49,10.49,0,0,0-10-6.16,13.09,13.09,0,0,0-7,1.8A11.58,11.58,0,0,0,154.6,182a16,16,0,0,0-1.51,7.09,13.75,13.75,0,0,0,1.8,7.05,13.11,13.11,0,0,0,5,4.9,14.5,14.5,0,0,0,7.28,1.8,13.74,13.74,0,0,0,4.57-.83,14.14,14.14,0,0,0,3.78-1.91,4.1,4.1,0,0,1,2.34-.82A3.08,3.08,0,0,1,180,200a3.41,3.41,0,0,1,1.3,2.38,2.56,2.56,0,0,1-1.15,2.23,19.85,19.85,0,0,1-6.09,3.17A21.9,21.9,0,0,1,167.13,209Z"/><path class="cls-3" d="M208.31,209a17.26,17.26,0,0,1-9.43-2.63,18.61,18.61,0,0,1-6.59-7.12A21.21,21.21,0,0,1,189.88,189a20,20,0,0,1,2.63-10.23,19.36,19.36,0,0,1,7.13-7.16,19.85,19.85,0,0,1,27.28,7.16A20.08,20.08,0,0,1,229.55,189h-2.81a21.21,21.21,0,0,1-2.41,10.19,18.61,18.61,0,0,1-6.59,7.12A17.26,17.26,0,0,1,208.31,209Zm1.44-6.48a12.33,12.33,0,0,0,6.55-1.76,12.64,12.64,0,0,0,4.54-4.83,14.24,14.24,0,0,0,1.65-6.87,14.42,14.42,0,0,0-1.65-6.95,12.54,12.54,0,0,0-4.54-4.82,12.95,12.95,0,0,0-13.07,0,12.62,12.62,0,0,0-4.6,4.82,14.11,14.11,0,0,0-1.7,6.95,13.94,13.94,0,0,0,1.7,6.87,12.72,12.72,0,0,0,4.6,4.83A12.42,12.42,0,0,0,209.75,202.5Zm16.13,6.27a3.57,3.57,0,0,1-3.67-3.68v-11l1.36-7.63,6,2.59v16.05a3.57,3.57,0,0,1-3.67,3.68Z"/><path class="cls-3" d="M254.82,209a27,27,0,0,1-9.32-1.55,17.82,17.82,0,0,1-6.66-3.92,3.14,3.14,0,0,1-.9-2.63,3.48,3.48,0,0,1,1.4-2.41,3.75,3.75,0,0,1,2.85-1,3.93,3.93,0,0,1,2.41,1.26,11.34,11.34,0,0,0,3.92,2.55,14.62,14.62,0,0,0,6,1.19,12.1,12.1,0,0,0,6.38-1.37,4.23,4.23,0,0,0,2.26-3.52,4.4,4.4,0,0,0-2.05-3.75c-1.42-1.05-4-1.92-7.74-2.59q-7.27-1.44-10.55-4.32a9,9,0,0,1-3.27-7.06,8.79,8.79,0,0,1,2.16-6.08,13,13,0,0,1,5.54-3.6,21.23,21.23,0,0,1,7.06-1.19,22.11,22.11,0,0,1,8.42,1.51,14.43,14.43,0,0,1,5.83,4.18,3.32,3.32,0,0,1,.94,2.41,2.83,2.83,0,0,1-1.22,2.13,3.59,3.59,0,0,1-2.74.5,5.06,5.06,0,0,1-2.66-1.3,9.81,9.81,0,0,0-3.89-2.37,16.41,16.41,0,0,0-4.83-.65,12,12,0,0,0-5.36,1.08,3.41,3.41,0,0,0-2.2,3.17,4.17,4.17,0,0,0,.69,2.34,5.72,5.72,0,0,0,2.7,1.87,34.92,34.92,0,0,0,5.9,1.62,31.76,31.76,0,0,1,8.53,2.74,11.27,11.27,0,0,1,4.5,3.85,9.39,9.39,0,0,1,1.37,5.07,10.65,10.65,0,0,1-1.76,6,12.17,12.17,0,0,1-5.19,4.25A20.37,20.37,0,0,1,254.82,209Z"/><path class="cls-3" d="M295.14,207.11a3.32,3.32,0,0,1-2.56.11,3.72,3.72,0,0,1-1.9-1.84l-16.49-31.32a2.93,2.93,0,0,1-.18-2.63,3.44,3.44,0,0,1,6.37-.1l15.77,31.32a4.27,4.27,0,0,1,.54,2.62A2.31,2.31,0,0,1,295.14,207.11ZM286.65,226a4.45,4.45,0,0,1-1.73-.43c-2.12-1-2.69-2.47-1.73-4.53l22-49.61c1-2,2.47-2.59,4.53-1.73s2.76,2.42,1.8,4.54l-22,49.53A2.94,2.94,0,0,1,286.65,226Z"/><path class="cls-4" d="M321.92,208.69a2.8,2.8,0,0,1-2.8-2.8V155.27a2.7,2.7,0,0,1,.82-2,2.74,2.74,0,0,1,2-.83,2.71,2.71,0,0,1,2,.83,2.67,2.67,0,0,1,.83,2v24.48L351,153.47a3.76,3.76,0,0,1,1.08-.79,2.81,2.81,0,0,1,1.15-.22,2.39,2.39,0,0,1,1.95.79,2.81,2.81,0,0,1,.61,1.91,3.38,3.38,0,0,1-.9,2.13L335.17,177l19.95,27.22a2.89,2.89,0,0,1-.29,3.74,2.36,2.36,0,0,1-1.73.72,2.63,2.63,0,0,1-2.38-1.22L331.14,181l-6.41,6.48v18.44a2.82,2.82,0,0,1-2.81,2.8Z"/><path class="cls-4" d="M368.36,192.64a2.74,2.74,0,0,1-2.05-.79,2.82,2.82,0,0,1-.75-2V155.27a2.61,2.61,0,0,1,2.8-2.81,2.64,2.64,0,0,1,2,.76,2.75,2.75,0,0,1,.76,2.05v34.56a2.79,2.79,0,0,1-.76,2A2.63,2.63,0,0,1,368.36,192.64Zm0,16.05a2.8,2.8,0,0,1-2.05-.75,2.71,2.71,0,0,1-.75-2V172.12a2.61,2.61,0,0,1,2.8-2.81,2.64,2.64,0,0,1,2,.76,2.73,2.73,0,0,1,.76,2.05V206a2.59,2.59,0,0,1-2.74,2.73Zm31,0a2.72,2.72,0,0,1-2-.79,2.62,2.62,0,0,1-.79-1.94V187.24a14.33,14.33,0,0,0-1.7-7.35,10.76,10.76,0,0,0-4.6-4.32,14.7,14.7,0,0,0-6.59-1.44,14.52,14.52,0,0,0-6.37,1.37,11.24,11.24,0,0,0-4.5,3.75,9.16,9.16,0,0,0-1.66,5.4h-4a15.5,15.5,0,0,1,2.45-8.1,16.32,16.32,0,0,1,6.12-5.62,17.59,17.59,0,0,1,8.49-2.05,19.41,19.41,0,0,1,9.15,2.12,15.59,15.59,0,0,1,6.37,6.23,19.92,19.92,0,0,1,2.34,10V206a2.7,2.7,0,0,1-2.74,2.73Z"/><path class="cls-4" d="M431.65,209.05a18.94,18.94,0,0,1-9.93-2.62,19.14,19.14,0,0,1-7-7.17,21.58,21.58,0,0,1,.07-20.52,19.37,19.37,0,0,1,7.16-7.16,21.13,21.13,0,0,1,20.42,0,19.41,19.41,0,0,1,7.12,7.16,20.56,20.56,0,0,1,2.7,10.3L450,190.77a18.16,18.16,0,0,1-2.41,9.32,17.89,17.89,0,0,1-6.55,6.55A18.32,18.32,0,0,1,431.65,209.05Zm.58-5a14.3,14.3,0,0,0,7.45-1.94,14.12,14.12,0,0,0,5.18-5.36,16.44,16.44,0,0,0,0-15.38,14.48,14.48,0,0,0-5.18-5.36,14.95,14.95,0,0,0-14.87,0,14.59,14.59,0,0,0-5.25,5.36,16.14,16.14,0,0,0,0,15.38,14.22,14.22,0,0,0,12.67,7.3Zm17.21,4.68a2.82,2.82,0,0,1-2-.75,2.62,2.62,0,0,1-.79-2V193.65L448,188l4.24,1.08V206a2.62,2.62,0,0,1-.79,2A2.81,2.81,0,0,1,449.44,208.69Z"/><path class="cls-4" d="M466.93,161.82a3.73,3.73,0,0,1-2.74-1.15,3.85,3.85,0,0,1-1.15-2.81,3.58,3.58,0,0,1,1.19-2.84A4.06,4.06,0,0,1,467,154a4,4,0,0,1,2.7,1.05,3.58,3.58,0,0,1,1.19,2.84,3.93,3.93,0,0,1-4,4Zm.07,46.87a2.61,2.61,0,0,1-2.81-2.8V172.12a2.62,2.62,0,0,1,2.81-2.81,2.64,2.64,0,0,1,2,.76,2.73,2.73,0,0,1,.76,2.05v33.77a2.76,2.76,0,0,1-.76,2.05A2.68,2.68,0,0,1,467,208.69Z"/><path class="cls-4" d="M486.59,208.69a2.5,2.5,0,0,1-2.74-2.73V172.05a2.74,2.74,0,1,1,5.47,0V206a2.5,2.5,0,0,1-2.73,2.73Zm-.44-24.26a16.92,16.92,0,0,1,2.34-8,15.86,15.86,0,0,1,5.55-5.55,14.7,14.7,0,0,1,7.59-2,11.39,11.39,0,0,1,5.12.93,2.27,2.27,0,0,1,1.36,2.74,2.11,2.11,0,0,1-1,1.44,3,3,0,0,1-1.65.29l-2.2-.15a16,16,0,0,0-7.16.83,10.83,10.83,0,0,0-5,3.64,9.39,9.39,0,0,0-1.84,5.83Z"/><path class="cls-4" d="M531.3,209.05a19,19,0,0,1-9.94-2.62,19.22,19.22,0,0,1-7-7.17A20.48,20.48,0,0,1,511.86,189a20.21,20.21,0,0,1,2.62-10.3,19.47,19.47,0,0,1,7.17-7.16,21.11,21.11,0,0,1,20.41,0,19.43,19.43,0,0,1,7.13,7.16,20.77,20.77,0,0,1,2.7,10.3l-2.23,1.73a18.26,18.26,0,0,1-2.41,9.32,17.92,17.92,0,0,1-6.56,6.55A18.29,18.29,0,0,1,531.3,209.05Zm.57-5a14.31,14.31,0,0,0,7.46-1.94,14.12,14.12,0,0,0,5.18-5.36,16.44,16.44,0,0,0,0-15.38,14.48,14.48,0,0,0-5.18-5.36,14.95,14.95,0,0,0-14.87,0,14.69,14.69,0,0,0-5.26,5.36,16.21,16.21,0,0,0,0,15.38,14.25,14.25,0,0,0,12.67,7.3Zm17.21,4.68a2.82,2.82,0,0,1-2-.75,2.66,2.66,0,0,1-.79-2V193.65l1.37-5.69,4.25,1.08V206a2.66,2.66,0,0,1-.79,2A2.82,2.82,0,0,1,549.08,208.69Z"/><path class="cls-4" d="M560.17,175.57a2.49,2.49,0,0,1-1.8-.68,2.25,2.25,0,0,1-.72-1.69,2.34,2.34,0,0,1,.72-1.77,2.53,2.53,0,0,1,1.8-.68h18.36a2.53,2.53,0,0,1,1.8.68,2.34,2.34,0,0,1,.72,1.77,2.25,2.25,0,0,1-.72,1.69,2.49,2.49,0,0,1-1.8.68Zm17.93,33.12A12.77,12.77,0,0,1,566.58,202a14.48,14.48,0,0,1-1.73-7.16V159.59a2.82,2.82,0,0,1,.75-2,2.66,2.66,0,0,1,2-.79,2.77,2.77,0,0,1,2,.79,2.73,2.73,0,0,1,.79,2V194.8a8.51,8.51,0,0,0,2.16,6,7.21,7.21,0,0,0,5.55,2.34H580a2.4,2.4,0,0,1,1.87.79,2.89,2.89,0,0,1,.72,2,2.54,2.54,0,0,1-.86,2,3.19,3.19,0,0,1-2.16.75Z"/></g></g></svg>