<svg id="Layer_1" data-name="Layer 1" xmlns="http://www.w3.org/2000/svg" xmlns:xlink="http://www.w3.org/1999/xlink" viewBox="0 0 154.29 256.44"><defs><style>.cls-1{fill:#00916e;}.cls-2{fill:url(#linear-gradient);}</style><linearGradient id="linear-gradient" x1="320" y1="368.22" x2="320" y2="174.18" gradientUnits="userSpaceOnUse"><stop offset="0" stop-color="#a9fbd7"/><stop offset="0.16" stop-color="#a9fbd7" stop-opacity="0.93"/><stop offset="0.51" stop-color="#a9fbd7" stop-opacity="0.81"/><stop offset="0.8" stop-color="#a9fbd7" stop-opacity="0.73"/><stop offset="1" stop-color="#a9fbd7" stop-opacity="0.7"/></linearGradient></defs><title>easy_khairat_logo</title><path class="cls-1" d="M242.86,133.49V284.11a21.68,21.68,0,0,0,33.48,18.18L384.53,232a27.7,27.7,0,0,0,0-46.46L276.34,115.31A21.68,21.68,0,0,0,242.86,133.49Z" transform="translate(-242.86 -111.78)"/><path class="cls-2" d="M242.86,195.89V346.51a21.68,21.68,0,0,0,33.48,18.18l108.19-70.26a27.7,27.7,0,0,0,0-46.46l-46.72-30.34-61.47-39.92A21.68,21.68,0,0,0,242.86,195.89Z" transform="translate(-242.86 -111.78)"/><circle class="cls-1" cx="130.46" cy="232.61" r="23.83"/></svg>